<svg width="120" height="40" viewBox="0 0 120 40" fill="none" xmlns="http://www.w3.org/2000/svg">
<path d="M110.135 0.00013H9.53468C9.16798 0.00013 8.80568 0.00013 8.43995 0.00213C8.1338 0.00413 7.83009 0.00994 7.521 0.01483C6.84951 0.0227318 6.17961 0.0818063 5.5171 0.19154C4.85552 0.303663 4.21467 0.515046 3.61622 0.81854C3.0185 1.1246 2.47235 1.5223 1.99757 1.9972C1.5203 2.47077 1.12246 3.01815 0.81935 3.61829C0.5154 4.21724 0.304641 4.85907 0.19435 5.52161C0.0830109 6.18331 0.0230984 6.85265 0.01515 7.52361C0.00587 7.83021 0.00489 8.13783 0 8.44447V31.5587C0.00489 31.8692 0.00587 32.17 0.01515 32.4806C0.0231008 33.1516 0.0830134 33.8209 0.19435 34.4825C0.304336 35.1455 0.515108 35.7877 0.81935 36.3868C1.12233 36.985 1.52022 37.5302 1.99757 38.0011C2.47054 38.4781 3.01705 38.8761 3.61622 39.1798C4.21467 39.4841 4.85545 39.6968 5.5171 39.8106C6.17972 39.9195 6.84956 39.9786 7.521 39.9874C7.83009 39.9942 8.1338 39.9981 8.43995 39.9981C8.80567 40.0001 9.168 40.0001 9.53468 40.0001H110.135C110.494 40.0001 110.859 40.0001 111.219 39.9981C111.523 39.9981 111.836 39.9942 112.141 39.9874C112.811 39.9791 113.479 39.92 114.141 39.8106C114.804 39.696 115.448 39.4834 116.049 39.1798C116.647 38.8759 117.193 38.478 117.666 38.0011C118.142 37.5284 118.541 36.9836 118.848 36.3868C119.15 35.7872 119.358 35.1451 119.467 34.4825C119.578 33.8208 119.64 33.1516 119.652 32.4806C119.656 32.17 119.656 31.8692 119.656 31.5587C119.664 31.1954 119.664 30.8341 119.664 30.4649V9.53626C119.664 9.17005 119.664 8.80677 119.656 8.44447C119.656 8.13783 119.656 7.83021 119.652 7.52357C119.64 6.85255 119.578 6.18337 119.467 5.52157C119.358 4.85941 119.149 4.21763 118.848 3.61825C118.23 2.41533 117.252 1.43616 116.049 0.81845C115.448 0.515697 114.804 0.30437 114.141 0.19145C113.48 0.0812328 112.811 0.0221378 112.141 0.01469C111.836 0.00981 111.523 0.00395 111.219 0.002C110.859 0 110.494 0 110.135 0V0.00013Z" fill="#A6A6A6"/>
<path d="M8.44487 39.1252C8.14019 39.1252 7.84287 39.1213 7.54058 39.1145C6.91436 39.1064 6.2896 39.0519 5.67144 38.9514C5.09503 38.8522 4.53664 38.6675 4.0147 38.4035C3.49754 38.1418 3.02585 37.7985 2.6177 37.3869C2.20364 36.9802 1.85891 36.5085 1.59719 35.9904C1.33258 35.469 1.14945 34.9101 1.05419 34.3332C0.951311 33.7134 0.895651 33.0866 0.887687 32.4582C0.881347 32.2473 0.873047 31.5451 0.873047 31.5451V8.44458C0.873047 8.44458 0.881887 7.75317 0.887737 7.55004C0.895363 6.92273 0.950699 6.2969 1.05327 5.67797C1.14871 5.09949 1.33197 4.53899 1.59673 4.01587C1.85749 3.49819 2.2003 3.0261 2.61187 2.61792C3.02297 2.20587 3.49617 1.86085 4.01421 1.59545C4.53495 1.33234 5.09228 1.14898 5.66753 1.05151C6.28772 0.95008 6.91465 0.89524 7.54304 0.887454L8.44536 0.875244H111.214L112.127 0.887944C112.75 0.895343 113.371 0.949694 113.985 1.05053C114.566 1.14922 115.13 1.33386 115.656 1.59838C116.694 2.13323 117.539 2.97941 118.071 4.01831C118.332 4.53782 118.512 5.09375 118.607 5.66723C118.71 6.29124 118.768 6.92198 118.78 7.55444C118.783 7.83764 118.783 8.14184 118.783 8.44458C118.791 8.81958 118.791 9.17651 118.791 9.53637V30.465C118.791 30.8283 118.791 31.1828 118.783 31.5402C118.783 31.8654 118.783 32.1633 118.779 32.4699C118.768 33.0911 118.711 33.7106 118.608 34.3234C118.515 34.9045 118.333 35.4678 118.068 35.9934C117.805 36.5059 117.462 36.9735 117.053 37.3791C116.644 37.7929 116.172 38.1382 115.653 38.4016C115.128 38.6676 114.566 38.853 113.985 38.9514C113.367 39.0524 112.742 39.1069 112.116 39.1145C111.823 39.1213 111.517 39.1252 111.219 39.1252L110.135 39.1272L8.44487 39.1252Z" fill="black"/>
<path fill-rule="evenodd" clip-rule="evenodd" d="M74.6792 29.0762C73.0444 29.0762 71.8481 28.2676 71.7104 27.0361H69.8081C69.9282 29.2822 71.7876 30.7031 74.5415 30.7031C77.4849 30.7031 79.3354 29.248 79.3354 26.9248C79.3354 25.1084 78.2769 24.085 75.729 23.4824L74.3608 23.1465C72.7603 22.751 72.106 22.2344 72.106 21.3564C72.106 20.2549 73.1304 19.498 74.6274 19.498C76.1245 19.498 77.1489 20.2461 77.2612 21.4854H79.1372C79.0767 19.3428 77.2778 17.8711 74.6538 17.8711C72.0024 17.8711 70.1353 19.3428 70.1353 21.4854C70.1353 23.2158 71.1938 24.2822 73.4741 24.833L75.0835 25.2207C76.6929 25.6162 77.3726 26.1934 77.3726 27.1572C77.3726 28.2676 76.2456 29.0762 74.6792 29.0762ZM42.3022 27.1396H37.5688L36.4321 30.4961H34.4272L38.9106 18.0781H40.9937L45.4771 30.4961H43.438L42.3022 27.1396ZM38.0591 25.5908H41.811L39.9614 20.1436H39.9097L38.0591 25.5908ZM51.3813 30.5908C53.6538 30.5908 55.1597 28.7832 55.1597 25.9697C55.1597 23.1641 53.645 21.3477 51.3472 21.3477C50.165 21.3096 49.0571 21.9246 48.4644 22.9482H48.4302V21.4424H46.6313V33.4912H48.4897V29.0068H48.5327C49.1001 30.0371 50.2065 30.6523 51.3813 30.5908ZM53.2495 25.9697C53.2495 24.1367 52.3022 22.9316 50.8569 22.9316C49.437 22.9316 48.4819 24.1621 48.4819 25.9697C48.4819 27.7939 49.437 29.0156 50.8569 29.0156C52.3022 29.0156 53.2495 27.8193 53.2495 25.9697ZM61.3462 30.5908C63.6187 30.5908 65.1245 28.7832 65.1245 25.9697C65.1245 23.1641 63.6099 21.3477 61.312 21.3477C60.1294 21.3096 59.022 21.9246 58.4292 22.9482H58.395V21.4424H56.5962V33.4912H58.4546V29.0068H58.4976C59.0649 30.0371 60.1714 30.6523 61.3462 30.5908ZM63.2144 25.9697C63.2144 24.1367 62.2671 22.9316 60.8218 22.9316C59.4019 22.9316 58.4468 24.1621 58.4468 25.9697C58.4468 27.7939 59.4019 29.0156 60.8218 29.0156C62.2671 29.0156 63.2144 27.8193 63.2144 25.9697ZM83.3462 19.2998V21.4424H85.0679V22.9141H83.3462V27.9053C83.3462 28.6807 83.6909 29.042 84.4478 29.042C84.6523 29.0383 84.856 29.0242 85.0591 28.999V30.4619C84.7188 30.5254 84.373 30.5542 84.0269 30.5479C82.1938 30.5479 81.479 29.8594 81.479 28.1035V22.9141H80.1626V21.4424H81.479V19.2998H83.3462ZM90.3589 21.3311C87.7427 21.3311 86.0649 23.1211 86.0649 25.9697C86.0649 28.8262 87.7261 30.6084 90.3589 30.6084C92.9927 30.6084 94.6538 28.8262 94.6538 25.9697C94.6538 23.1211 92.9839 21.3311 90.3589 21.3311ZM92.7603 25.9697C92.7603 24.0156 91.8647 22.8623 90.3589 22.8623C88.853 22.8623 87.9585 24.0244 87.9585 25.9697C87.9585 27.9316 88.853 29.0762 90.3589 29.0762C91.8647 29.0762 92.7603 27.9316 92.7603 25.9697ZM97.9585 21.4426H96.186V30.4963H98.0444V25.1262C97.9824 24.5828 98.1611 24.0396 98.5337 23.6392C98.9058 23.2388 99.4346 23.021 99.981 23.0432C100.05 23.041 100.12 23.042 100.189 23.0457C100.258 23.0491 100.326 23.0552 100.395 23.0642C100.478 23.075 100.56 23.0898 100.642 23.1089C100.7 23.1223 100.758 23.1379 100.816 23.1555V21.4172C100.694 21.3899 100.57 21.3706 100.446 21.3594C100.357 21.3513 100.268 21.3474 100.179 21.3479C99.1577 21.3088 98.2485 21.9915 98.0015 22.9836H97.9585V21.4426ZM109.384 27.8369C109.134 29.4805 107.534 30.6084 105.486 30.6084C102.852 30.6084 101.217 28.8438 101.217 26.0127C101.217 23.1729 102.861 21.3311 105.408 21.3311C107.913 21.3311 109.488 23.0518 109.488 25.7969V26.4336H103.093V26.5459C103.034 27.22 103.266 27.8872 103.732 28.3777C104.198 28.8684 104.853 29.1353 105.529 29.1104C106.431 29.1948 107.281 28.677 107.62 27.8369H109.384ZM107.628 25.1348H103.102C103.101 24.5234 103.343 23.937 103.776 23.5054C104.209 23.074 104.796 22.8333 105.408 22.8369C106.014 22.824 106.599 23.0645 107.02 23.5007C107.34 23.832 107.545 24.2534 107.61 24.7024C107.63 24.8445 107.637 24.9893 107.628 25.1348Z" fill="white"/>
<path fill-rule="evenodd" clip-rule="evenodd" d="M59.0938 8.43701H59.9824V14.6978H59.0938V8.43701ZM39.9316 9.54883C39.3877 8.97437 38.6152 8.67432 37.8262 8.73096H35.6709V14.6978H37.8262C39.6035 14.6978 40.6338 13.6021 40.6338 11.6958C40.7334 10.9111 40.4756 10.123 39.9316 9.54883ZM37.7227 13.854H36.5977V9.57422H37.7227C38.2837 9.54297 38.8291 9.76416 39.2095 10.177C39.5903 10.5901 39.7666 11.1516 39.6904 11.708C39.7197 11.9048 39.7168 12.1025 39.6846 12.2942C39.625 12.647 39.4648 12.9795 39.2173 13.2493C38.9756 13.5129 38.6665 13.6985 38.3296 13.7908C38.1343 13.8442 37.9297 13.8665 37.7227 13.854ZM41.6807 12.4443C41.6035 11.6372 41.9902 10.856 42.6792 10.4285C43.3682 10.001 44.2397 10.001 44.9287 10.4285C45.6177 10.856 46.0049 11.6372 45.9277 12.4443C46.0063 13.2522 45.6196 14.0349 44.9302 14.4634C44.2407 14.8918 43.3677 14.8918 42.6782 14.4634C41.9883 14.0349 41.6016 13.2522 41.6807 12.4443ZM43.8057 10.8975C44.5752 10.8975 45.0137 11.4683 45.0137 12.4443C45.0137 13.4243 44.5752 13.9946 43.8057 13.9946C43.0332 13.9946 42.5986 13.4282 42.5986 12.4443C42.5986 11.4683 43.0332 10.8975 43.8057 10.8975ZM51.5732 14.6978H50.6514L49.7207 11.3813H49.6504L48.7236 14.6978H47.8105L46.5693 10.1948H47.4707L48.2773 13.6309H48.3438L49.2695 10.1948H50.1221L51.0479 13.6309H51.1182L51.9209 10.1948H52.8096L51.5732 14.6978ZM54.709 10.1948H53.8535V14.6978H54.7422V12.0635C54.7104 11.7639 54.811 11.4653 55.0176 11.2458C55.0474 11.2141 55.0791 11.1846 55.1123 11.1572C55.1514 11.125 55.1929 11.0957 55.2363 11.0696C55.4097 10.9651 55.6113 10.9128 55.8174 10.9224C56.4746 10.9224 56.7891 11.2822 56.7891 12.0059V14.6978H57.6777V11.7827C57.7427 11.3425 57.6045 10.8965 57.3013 10.5706C57.2803 10.5481 57.2588 10.5266 57.2368 10.5059C57.2217 10.4912 57.2061 10.4768 57.1899 10.4629C57.123 10.4048 57.0513 10.3533 56.9756 10.3086C56.9541 10.2959 56.9326 10.2837 56.9102 10.272L56.854 10.2439C56.6274 10.1372 56.375 10.0889 56.1191 10.1079C55.5459 10.0613 55.0063 10.3835 54.7754 10.9102H54.709V10.1948ZM62.2163 10.4285C61.5273 10.856 61.1406 11.6372 61.2178 12.4443C61.1392 13.2524 61.5259 14.0349 62.2153 14.4634C62.9048 14.8918 63.7778 14.8918 64.4673 14.4634C65.1567 14.0349 65.5439 13.2524 65.4653 12.4443C65.5425 11.6372 65.1553 10.856 64.4663 10.4285C63.7773 10.001 62.9053 10.001 62.2163 10.4285ZM64.5508 12.4443C64.5508 11.4683 64.1123 10.8975 63.3428 10.8975C62.5703 10.8975 62.1357 11.4683 62.1357 12.4443C62.1357 13.4282 62.5703 13.9946 63.3428 13.9946C64.1123 13.9946 64.5508 13.4243 64.5508 12.4443ZM68.0757 12.0801C67.0044 12.1465 66.4009 12.6138 66.4009 13.4243C66.4023 13.8086 66.5664 14.1743 66.8525 14.4312C67.1382 14.688 67.5195 14.8118 67.9019 14.772C68.1855 14.7852 68.4619 14.7183 68.7021 14.5859C68.9238 14.4639 69.1152 14.2866 69.2544 14.0649H69.3247V14.6978H70.1802V11.6211C70.1802 10.6699 69.5435 10.1079 68.4146 10.1079C67.3931 10.1079 66.6655 10.604 66.5747 11.3774H67.4351C67.5337 11.0591 67.8774 10.877 68.3735 10.877C68.981 10.877 69.2954 11.1455 69.2954 11.6211V12.0098L68.0757 12.0801ZM69.2954 13.0396V12.6631L68.1958 12.7334C67.5757 12.7749 67.2944 12.9858 67.2944 13.3828C67.2944 13.7881 67.646 14.0239 68.1294 14.0239C68.4155 14.053 68.7012 13.9644 68.9209 13.7788C69.1411 13.5933 69.2759 13.3264 69.2954 13.0396ZM73.2173 10.1201C72.0796 10.1201 71.3481 11.0215 71.3481 12.4443C71.3481 13.8706 72.0718 14.772 73.2173 14.772C73.7979 14.7935 74.3428 14.4907 74.6313 13.9863H74.7017V14.6978H75.5532V8.43701H74.6646V10.9102H74.5981C74.3296 10.4014 73.792 10.0938 73.2173 10.1201ZM72.2661 12.4443C72.2661 13.3994 72.7163 13.9741 73.4692 13.9741C74.2183 13.9741 74.6812 13.3911 74.6812 12.4482C74.6812 11.5098 74.2134 10.9185 73.4692 10.9185C72.7212 10.9185 72.2661 11.4971 72.2661 12.4443ZM80.2285 10.4285C79.5396 10.856 79.1528 11.6372 79.23 12.4443C79.1509 13.2522 79.5376 14.0349 80.2275 14.4634C80.917 14.8918 81.79 14.8918 82.4795 14.4634C83.1689 14.0349 83.5557 13.2522 83.4771 12.4443C83.5542 11.6372 83.167 10.856 82.478 10.4285C81.7891 10.001 80.9175 10.001 80.2285 10.4285ZM82.563 12.4443C82.563 11.4683 82.1245 10.8975 81.355 10.8975C80.5825 10.8975 80.1479 11.4683 80.1479 12.4443C80.1479 13.4282 80.5825 13.9946 81.355 13.9946C82.1245 13.9946 82.563 13.4243 82.563 12.4443ZM85.5249 10.1948H84.6694V14.6978H85.5581V12.0635C85.5439 11.9312 85.5557 11.7991 85.5908 11.6741C85.6357 11.5156 85.7183 11.3684 85.8335 11.2458C86.04 11.0266 86.332 10.9084 86.6333 10.9224C87.2905 10.9224 87.605 11.2822 87.605 12.0059V14.6978H88.4937V11.7827C88.5586 11.3425 88.4204 10.8965 88.1172 10.5706C87.9951 10.4395 87.8521 10.3337 87.6953 10.2561C87.564 10.1912 87.4233 10.146 87.2783 10.1226C87.166 10.1045 87.0508 10.0994 86.9351 10.1079C86.3618 10.0613 85.8223 10.3835 85.5913 10.9102H85.5249V10.1948ZM93.5151 9.07373V10.2153H94.4907V10.9639H93.5151V13.2793C93.5151 13.4365 93.5366 13.5642 93.582 13.6648C93.6724 13.8657 93.8569 13.9575 94.1519 13.9575C94.2651 13.9573 94.3784 13.9502 94.4907 13.937V14.6772C94.3311 14.7058 94.1694 14.7209 94.0073 14.7227C93.019 14.7227 92.6255 14.375 92.6255 13.5068V10.9639H91.9106V10.2153H92.6255V9.07373H93.5151ZM96.5854 8.43701H95.7046V14.6978H96.5933V12.0679C96.5659 11.7588 96.6763 11.4536 96.8945 11.2334C97.1133 11.0132 97.418 10.9009 97.7271 10.9263C98.355 10.9263 98.6899 11.2905 98.6899 12.0098V14.6978H99.5796V11.7905C99.6099 11.563 99.5869 11.3342 99.5156 11.1216C99.4497 10.9253 99.3428 10.7424 99.1987 10.5864C98.8989 10.2617 98.4702 10.0879 98.0288 10.1118C97.4468 10.0647 96.8979 10.3872 96.6558 10.9185H96.5854V8.43701ZM104.761 13.4819C104.512 14.3313 103.69 14.8801 102.81 14.7847C102.21 14.8005 101.633 14.5518 101.232 14.1042C100.832 13.6565 100.648 13.0554 100.73 12.4604C100.65 11.8638 100.833 11.262 101.231 10.8105C101.427 10.5891 101.665 10.4146 101.928 10.2947C102.201 10.1704 102.5 10.1052 102.806 10.1079C104.059 10.1079 104.815 10.9639 104.815 12.3779V12.688H101.635V12.7378C101.607 13.072 101.721 13.4026 101.95 13.6482C102.178 13.8938 102.5 14.0315 102.834 14.0278C103.27 14.0801 103.693 13.8645 103.906 13.4819H104.761ZM103.91 12.0308H101.635C101.631 11.7202 101.753 11.4214 101.972 11.2017C102.111 11.063 102.282 10.9634 102.467 10.9097C102.574 10.8784 102.687 10.8628 102.801 10.8643C103.108 10.8572 103.403 10.98 103.614 11.2021C103.825 11.4243 103.933 11.7251 103.91 12.0308Z" fill="white"/>
<path fill-rule="evenodd" clip-rule="evenodd" d="M23.1524 8.72046C23.2491 9.98462 22.8492 11.2368 22.0376 12.2112C21.2505 13.1904 20.0572 13.7544 18.8008 13.7415C18.7207 12.5137 19.1324 11.3044 19.9444 10.3801C20.7671 9.44336 21.9121 8.85059 23.1524 8.72046ZM27.1255 16.1487C25.6802 17.0374 24.791 18.6042 24.7691 20.3008C24.771 22.2202 25.9204 23.9524 27.6885 24.7C27.3482 25.8044 26.836 26.8481 26.17 27.7925C25.2754 29.1304 24.3379 30.4375 22.8492 30.4617C22.1416 30.478 21.6641 30.2744 21.166 30.0625C20.6465 29.8413 20.105 29.6106 19.2583 29.6106C18.3604 29.6106 17.795 29.8486 17.2495 30.0781C16.7784 30.2764 16.3218 30.4685 15.6787 30.4951C14.2613 30.5476 13.1783 29.0671 12.2515 27.7417C10.3985 25.0352 8.95609 20.114 10.8902 16.7656C11.7984 15.1335 13.4961 14.0981 15.3628 14.0378C16.167 14.0212 16.9385 14.3311 17.6148 14.6028C18.1319 14.8105 18.5938 14.9958 18.9717 14.9958C19.8272 14.9958 21.4551 13.8147 23.1343 13.991C24.7305 14.041 26.2095 14.8406 27.1255 16.1487Z" fill="white"/>
</svg>
