<svg width="135" height="40" viewBox="0 0 135 40" fill="none" xmlns="http://www.w3.org/2000/svg">
<rect width="135" height="40" rx="5" fill="black"/>
<path fill-rule="evenodd" clip-rule="evenodd" d="M5 0H130C132.761 0 135 2.23859 135 5V35C135 37.7614 132.761 40 130 40H5C2.23853 40 0 37.7614 0 35V5C0 2.23859 2.23853 0 5 0ZM134.2 5C134.2 2.68042 132.32 0.799988 130 0.799988H5C2.68042 0.799988 0.800049 2.68042 0.800049 5V35C0.800049 37.3196 2.68042 39.2 5 39.2H130C132.32 39.2 134.2 37.3196 134.2 35V5Z" fill="#A6A6A6"/>
<path fill-rule="evenodd" clip-rule="evenodd" d="M47.74 23.06V24.86H52.0601C51.9924 25.7078 51.6399 26.5078 51.0601 27.13C50.186 28.0203 48.9766 28.4997 47.73 28.45C45.0791 28.45 42.9302 26.301 42.9302 23.65C42.9302 20.999 45.0791 18.85 47.73 18.85C48.948 18.8301 50.1238 19.2941 51 20.14L52.27 18.87C51.075 17.6599 49.4409 16.9853 47.74 17C45.3191 16.9058 43.0405 18.1437 41.802 20.2261C40.5635 22.3085 40.5635 24.9016 41.802 26.9839C43.0405 29.0663 45.3191 30.3043 47.74 30.21C49.4719 30.2883 51.1528 29.6137 52.3501 28.36C53.3977 27.2089 53.957 25.6958 53.9102 24.14C53.9119 23.9387 53.9031 23.7375 53.884 23.5372C53.8674 23.3605 53.8428 23.1846 53.8101 23.01L47.74 23.06ZM58.8301 21.7501C56.4841 21.7556 54.5864 23.6608 54.5901 26.0067C54.5938 28.3526 56.4976 30.2519 58.8435 30.25C61.1892 30.2482 63.0901 28.3459 63.0901 26.0001C63.1064 24.8644 62.6614 23.7708 61.8564 22.9695C61.0513 22.1683 59.9556 21.7282 58.8201 21.7501H58.8301ZM63.9102 26.0133C63.9028 23.6687 65.7957 21.761 68.1401 21.7501C69.2756 21.7282 70.3713 22.1683 71.1765 22.9695C71.9814 23.7708 72.4265 24.8644 72.4102 26.0001C72.4102 28.3447 70.5115 30.2463 68.1667 30.25C65.8223 30.2537 63.9175 28.3579 63.9102 26.0133ZM65.6321 27.1185C66.0889 28.0743 67.0835 28.6539 68.1401 28.58C68.8035 28.5646 69.4324 28.282 69.8843 27.7962C70.3362 27.3104 70.5728 26.6627 70.5403 26C70.5376 24.9407 69.8877 23.9905 68.9014 23.6041C67.915 23.2177 66.7927 23.4734 66.071 24.2491C65.3496 25.0247 65.1755 26.1626 65.6321 27.1185ZM56.3154 27.1262C56.7754 28.0814 57.7727 28.6581 58.8301 28.58H58.8201C59.4834 28.5646 60.1123 28.282 60.5642 27.7962C61.0161 27.3104 61.2527 26.6627 61.2202 26.0001C61.2173 24.9398 60.5662 23.9893 59.5784 23.6037C58.5908 23.2181 57.468 23.476 56.7473 24.2537C56.0269 25.0315 55.8555 26.1708 56.3154 27.1262ZM89.4102 21.75C91.0681 21.811 92.5164 22.8892 93.0503 24.46L93.2603 24.91L87.5701 27.26C87.9268 28.0722 88.7437 28.5838 89.6301 28.55C90.4861 28.5522 91.28 28.1039 91.7202 27.37L93.1702 28.37C92.3809 29.5515 91.051 30.2577 89.6301 30.25C88.5007 30.2665 87.4131 29.8231 86.6172 29.0216C85.8213 28.22 85.3855 27.1293 85.4102 26C85.3411 24.8965 85.7317 23.8137 86.4895 23.0085C87.2473 22.2034 88.3044 21.7479 89.4102 21.75ZM87.25 25.88C87.2092 25.2552 87.4214 24.6401 87.8391 24.1736C88.2568 23.707 88.8445 23.4282 89.4702 23.4C90.1294 23.3566 90.7512 23.7107 91.05 24.3L87.25 25.88ZM84.5002 30H82.6301V17.5H84.5002V30ZM79.5703 22.7H79.5002C78.9302 22.0627 78.1152 21.6989 77.2603 21.7C74.9902 21.8101 73.2065 23.6825 73.2065 25.955C73.2065 28.2275 74.9902 30.0999 77.2603 30.21C78.1179 30.2244 78.9382 29.8583 79.5002 29.21H79.5603V29.82C79.5603 31.45 78.6902 32.32 77.2903 32.32C76.3364 32.2977 75.491 31.701 75.1501 30.81L73.5203 31.49C74.1479 33.0168 75.6394 34.0099 77.2903 34C79.4802 34 81.2903 32.71 81.2903 29.57V22H79.5703V22.7ZM75.0674 26.0001C75.0674 27.3413 76.0911 28.4604 77.4268 28.5797L77.4199 28.58H77.4299L77.4268 28.5797C78.074 28.553 78.6829 28.2635 79.1121 27.7778C79.5427 27.2905 79.7551 26.6481 79.7 26.0001C79.7493 25.355 79.5361 24.7173 79.1089 24.2316C78.6814 23.7458 78.0762 23.4532 77.4299 23.42C76.0928 23.5379 75.0674 24.6578 75.0674 26.0001ZM101.81 17.5H97.3401V30H99.2102V25.26H101.82C103.273 25.3644 104.662 24.6486 105.42 23.405C106.178 22.1614 106.178 20.5986 105.42 19.355C104.662 18.1115 103.273 17.3957 101.82 17.5H101.81ZM99.2002 23.5H101.81L101.85 23.53C103.035 23.53 103.995 22.5696 103.995 21.385C103.995 20.2003 103.035 19.24 101.85 19.24H99.2002V23.5ZM113.34 21.7C111.949 21.6168 110.641 22.3671 110.01 23.61L111.67 24.3C112.004 23.6837 112.671 23.3229 113.37 23.38C113.85 23.324 114.332 23.463 114.708 23.7657C115.084 24.0684 115.322 24.5096 115.37 24.99V25.12C114.77 24.802 114.1 24.6371 113.42 24.64C111.63 24.64 109.82 25.64 109.82 27.45C109.856 28.2297 110.205 28.9618 110.789 29.4798C111.373 29.9977 112.142 30.2575 112.92 30.2C113.879 30.2689 114.8 29.8087 115.32 29H115.38V30H117.18V25.19C117.18 23 115.52 21.73 113.39 21.73L113.34 21.7ZM111.65 27.49C111.65 28.24 112.5 28.55 113.11 28.55L113.16 28.58C114.287 28.5526 115.221 27.6994 115.35 26.58C114.831 26.2904 114.244 26.1453 113.65 26.16C112.71 26.16 111.65 26.49 111.65 27.49ZM123.74 22L121.6 27.42H121.54L119.32 22H117.32L120.65 29.58L118.75 33.79H120.7L125.82 22H123.74ZM108.8 30H106.93V17.5H108.8V30Z" fill="white"/>
<path fill-rule="evenodd" clip-rule="evenodd" d="M69.21 12.22C70.427 13.4302 72.3931 13.4302 73.6101 12.22C74.7947 10.9732 74.7947 9.01672 73.6101 7.76996C73.0281 7.18372 72.2361 6.854 71.4099 6.854C70.584 6.854 69.792 7.18372 69.21 7.76996C68.0303 9.01874 68.0303 10.9712 69.21 12.22ZM46.6699 12.24C47.1831 11.7041 47.4543 10.9812 47.4199 10.24C47.4199 10.0891 47.4065 9.93854 47.3799 9.78998H44.47V10.51H46.6399C46.625 10.9635 46.4475 11.3965 46.1399 11.73C45.4546 12.3925 44.4377 12.5777 43.5627 12.1993C42.688 11.8209 42.1265 10.9532 42.1399 10C42.1182 9.3692 42.3542 8.75677 42.7939 8.30396C43.2336 7.85107 43.8389 7.59692 44.47 7.59998C45.0979 7.56567 45.7053 7.82867 46.1099 8.31L46.6399 7.77997C46.3838 7.48553 46.0618 7.25598 45.7 7.10999C45.3113 6.94366 44.8926 6.85858 44.47 6.85999C43.6404 6.84149 42.8403 7.1673 42.26 7.76001C41.3665 8.6593 41.0991 10.0066 41.5815 11.1789C42.064 12.3512 43.2021 13.1201 44.47 13.13C45.2964 13.1594 46.0964 12.8358 46.6699 12.24ZM49.3 7.73999H52V7H48.5V13H52V12.26H49.3V10.36H51.76V9.64001H49.3V7.73999ZM55.2798 13H54.5098V7.73999H52.8298V7H56.9998V7.73999H55.2798V13ZM60.71 7H59.9399V13H60.71V7ZM64.1299 13H63.3599V7.73999H61.6799V7H65.8V7.73999H64.1299V13ZM69.7798 11.72C70.6812 12.6176 72.1384 12.6176 73.0398 11.72C73.925 10.7441 73.925 9.2558 73.0398 8.27997C72.1384 7.38245 70.6812 7.38245 69.7798 8.27997C68.8948 9.2558 68.8948 10.7441 69.7798 11.72ZM76.5198 7H75.5798V13H76.3599V8.10999L79.4099 13H80.2097V7H79.4399V11.67L76.5198 7Z" fill="white"/>
<path d="M73.6101 12.22L73.6806 12.2909L73.6826 12.2888L73.6101 12.22ZM69.21 12.22L69.1372 12.2887L69.1395 12.2909L69.21 12.22ZM73.6101 7.76996L73.6826 7.70106L73.6811 7.6995L73.6101 7.76996ZM69.21 7.76996L69.139 7.69948L69.1373 7.70129L69.21 7.76996ZM47.4199 10.24H47.3198L47.32 10.2446L47.4199 10.24ZM46.6699 12.24L46.742 12.3093L46.7421 12.3092L46.6699 12.24ZM47.3799 9.78998L47.4783 9.77235L47.4636 9.68998H47.3799V9.78998ZM44.47 9.78998V9.68998H44.37V9.78998H44.47ZM44.47 10.51H44.37V10.61H44.47V10.51ZM46.6399 10.51L46.7398 10.5133L46.7432 10.41H46.6399V10.51ZM46.1399 11.73L46.2095 11.802L46.2134 11.7978L46.1399 11.73ZM43.5627 12.1993L43.523 12.2911L43.523 12.2911L43.5627 12.1993ZM42.1399 10L42.24 10.0014L42.2398 9.99656L42.1399 10ZM42.7939 8.30396L42.8657 8.37362L42.8657 8.37361L42.7939 8.30396ZM44.47 7.59998L44.4695 7.70015L44.4754 7.69983L44.47 7.59998ZM46.1099 8.31L46.0333 8.37434L46.1035 8.45781L46.1806 8.38071L46.1099 8.31ZM46.6399 7.77997L46.7106 7.85068L46.7766 7.78472L46.7153 7.71434L46.6399 7.77997ZM45.7 7.10999L45.6606 7.20194L45.6625 7.20272L45.7 7.10999ZM44.47 6.85999L44.4677 6.95999L44.4703 6.95998L44.47 6.85999ZM42.26 7.76001L42.3309 7.8305L42.3315 7.82997L42.26 7.76001ZM44.47 13.13L44.4735 13.03L44.4708 13.03L44.47 13.13ZM52 7.73999V7.83999H52.1V7.73999H52ZM49.3 7.73999V7.63999H49.2V7.73999H49.3ZM52 7H52.1V6.9H52V7ZM48.5 7V6.9H48.4V7H48.5ZM48.5 13H48.4V13.1H48.5V13ZM52 13V13.1H52.1V13H52ZM52 12.26H52.1V12.16H52V12.26ZM49.3 12.26H49.2V12.36H49.3V12.26ZM49.3 10.36V10.26H49.2V10.36H49.3ZM51.76 10.36V10.46H51.86V10.36H51.76ZM51.76 9.64001H51.86V9.54001H51.76V9.64001ZM49.3 9.64001H49.2V9.74001H49.3V9.64001ZM54.5098 13H54.4098V13.1H54.5098V13ZM55.2798 13V13.1H55.3798V13H55.2798ZM54.5098 7.73999H54.6098V7.63999H54.5098V7.73999ZM52.8298 7.73999H52.7298V7.83999H52.8298V7.73999ZM52.8298 7V6.9H52.7298V7H52.8298ZM56.9998 7H57.0998V6.9H56.9998V7ZM56.9998 7.73999V7.83999H57.0998V7.73999H56.9998ZM55.2798 7.73999V7.63999H55.1798V7.73999H55.2798ZM59.9399 7V6.9H59.8399V7H59.9399ZM60.71 7H60.81V6.9H60.71V7ZM59.9399 13H59.8399V13.1H59.9399V13ZM60.71 13V13.1H60.81V13H60.71ZM63.3599 13H63.2599V13.1H63.3599V13ZM64.1299 13V13.1H64.2299V13H64.1299ZM63.3599 7.73999H63.4599V7.63999H63.3599V7.73999ZM61.6799 7.73999H61.5799V7.83999H61.6799V7.73999ZM61.6799 7V6.9H61.5799V7H61.6799ZM65.8 7H65.9V6.9H65.8V7ZM65.8 7.73999V7.83999H65.9V7.73999H65.8ZM64.1299 7.73999V7.63999H64.0299V7.73999H64.1299ZM73.0398 11.72L73.1104 11.7909L73.1139 11.7872L73.0398 11.72ZM69.7798 11.72L69.7056 11.7872L69.7092 11.7908L69.7798 11.72ZM73.0398 8.27997L73.114 8.21269L73.1104 8.20911L73.0398 8.27997ZM69.7798 8.27997L69.7091 8.20901L69.7057 8.21279L69.7798 8.27997ZM75.5798 7V6.9H75.4798V7H75.5798ZM76.5198 7L76.6046 6.94698L76.5752 6.9H76.5198V7ZM75.5798 13H75.4798V13.1H75.5798V13ZM76.3599 13V13.1H76.4599V13H76.3599ZM76.3599 8.10999L76.4447 8.05706L76.2599 7.7607V8.10999H76.3599ZM79.4099 13L79.3251 13.0529L79.3544 13.1H79.4099V13ZM80.2097 13V13.1H80.3097V13H80.2097ZM80.2097 7H80.3097V6.9H80.2097V7ZM79.4399 7V6.9H79.3399V7H79.4399ZM79.4399 11.67L79.3552 11.723L79.5399 12.0185V11.67H79.4399ZM73.5396 12.1491C72.3616 13.3205 70.4585 13.3205 69.2805 12.1491L69.1395 12.2909C70.3955 13.5399 72.4246 13.5399 73.6806 12.2909L73.5396 12.1491ZM73.5376 7.83884C74.6855 9.04701 74.6855 10.9429 73.5376 12.1511L73.6826 12.2888C74.9038 11.0035 74.9038 8.98644 73.6826 7.70108L73.5376 7.83884ZM71.4099 6.954C72.2094 6.954 72.9759 7.27308 73.5391 7.84041L73.6811 7.6995C73.0803 7.09435 72.2627 6.754 71.4099 6.754V6.954ZM69.2809 7.84041C69.8442 7.27308 70.6106 6.954 71.4099 6.954V6.754C70.5573 6.754 69.7398 7.09435 69.139 7.6995L69.2809 7.84041ZM69.2827 12.1513C68.1394 10.9411 68.1394 9.04887 69.2827 7.83863L69.1373 7.70129C67.9212 8.98861 67.9212 11.0013 69.1373 12.2886L69.2827 12.1513ZM47.32 10.2446C47.3532 10.9585 47.092 11.6547 46.5977 12.1708L46.7421 12.3092C47.2743 11.7535 47.5555 11.0039 47.5198 10.2354L47.32 10.2446ZM47.2814 9.80761C47.307 9.95037 47.3199 10.095 47.3199 10.24H47.5199C47.5199 10.0832 47.506 9.9267 47.4783 9.77235L47.2814 9.80761ZM44.47 9.88998H47.3799V9.68998H44.47V9.88998ZM44.57 10.51V9.78998H44.37V10.51H44.57ZM46.6399 10.41H44.47V10.61H46.6399V10.41ZM46.2134 11.7978C46.5373 11.4467 46.7242 10.9908 46.7398 10.5133L46.5399 10.5067C46.5258 10.9362 46.3577 11.3464 46.0664 11.6622L46.2134 11.7978ZM43.523 12.2911C44.4351 12.6855 45.4951 12.4925 46.2094 11.8019L46.0704 11.6581C45.4141 12.2925 44.4404 12.4699 43.6024 12.1075L43.523 12.2911ZM42.0399 9.99859C42.0259 10.9922 42.6112 11.8966 43.523 12.2911L43.6024 12.1075C42.7648 11.7451 42.227 10.9142 42.2399 10.0014L42.0399 9.99859ZM42.7222 8.23429C42.2635 8.70664 42.0173 9.34547 42.04 10.0034L42.2398 9.99656C42.219 9.39293 42.445 8.80691 42.8657 8.37362L42.7222 8.23429ZM44.4705 7.49998C43.8122 7.49679 43.1808 7.7619 42.7222 8.2343L42.8657 8.37361C43.2864 7.94025 43.8656 7.69705 44.4695 7.69997L44.4705 7.49998ZM46.1864 8.24566C45.7616 7.74026 45.1238 7.46411 44.4645 7.50012L44.4754 7.69983C45.072 7.66724 45.649 7.91709 46.0333 8.37434L46.1864 8.24566ZM46.5692 7.70926L46.0392 8.23929L46.1806 8.38071L46.7106 7.85068L46.5692 7.70926ZM45.6625 7.20272C46.0097 7.34281 46.3187 7.56307 46.5644 7.8456L46.7153 7.71434C46.4489 7.408 46.1138 7.16916 45.7374 7.01725L45.6625 7.20272ZM44.4703 6.95998C44.8793 6.95863 45.2845 7.04097 45.6606 7.20192L45.7393 7.01805C45.3381 6.84636 44.9059 6.75854 44.4696 6.75999L44.4703 6.95998ZM42.3315 7.82997C42.8924 7.25703 43.6658 6.94208 44.4677 6.95996L44.4722 6.76001C43.615 6.7409 42.7882 7.07756 42.1886 7.69005L42.3315 7.82997ZM41.674 11.1408C41.2069 10.0058 41.4658 8.70124 42.3309 7.83049L42.1891 7.68953C41.2672 8.61737 40.9913 10.0074 41.4891 11.2169L41.674 11.1408ZM44.4708 13.03C43.2432 13.0204 42.1411 12.2759 41.674 11.1408L41.4891 11.2169C41.9868 12.4265 43.1611 13.2197 44.4692 13.23L44.4708 13.03ZM46.5979 12.1706C46.0441 12.746 45.2715 13.0585 44.4735 13.0301L44.4664 13.2299C45.3212 13.2604 46.1488 12.9256 46.742 12.3093L46.5979 12.1706ZM52 7.63999H49.3V7.83999H52V7.63999ZM51.9 7V7.73999H52.1V7H51.9ZM48.5 7.1H52V6.9H48.5V7.1ZM48.6 13V7H48.4V13H48.6ZM52 12.9H48.5V13.1H52V12.9ZM51.9 12.26V13H52.1V12.26H51.9ZM49.3 12.36H52V12.16H49.3V12.36ZM49.2 10.36V12.26H49.4V10.36H49.2ZM51.76 10.26H49.3V10.46H51.76V10.26ZM51.66 9.64001V10.36H51.86V9.64001H51.66ZM49.3 9.74001H51.76V9.54001H49.3V9.74001ZM49.2 7.73999V9.64001H49.4V7.73999H49.2ZM54.5098 13.1H55.2798V12.9H54.5098V13.1ZM54.4098 7.73999V13H54.6098V7.73999H54.4098ZM52.8298 7.83999H54.5098V7.63999H52.8298V7.83999ZM52.7298 7V7.73999H52.9298V7H52.7298ZM56.9998 6.9H52.8298V7.1H56.9998V6.9ZM57.0998 7.73999V7H56.8998V7.73999H57.0998ZM55.2798 7.83999H56.9998V7.63999H55.2798V7.83999ZM55.3798 13V7.73999H55.1798V13H55.3798ZM59.9399 7.1H60.71V6.9H59.9399V7.1ZM60.0399 13V7H59.8399V13H60.0399ZM60.71 12.9H59.9399V13.1H60.71V12.9ZM60.61 7V13H60.81V7H60.61ZM63.3599 13.1H64.1299V12.9H63.3599V13.1ZM63.2599 7.73999V13H63.4599V7.73999H63.2599ZM61.6799 7.83999H63.3599V7.63999H61.6799V7.83999ZM61.5799 7V7.73999H61.7799V7H61.5799ZM65.8 6.9H61.6799V7.1H65.8V6.9ZM65.9 7.73999V7H65.7V7.73999H65.9ZM64.1299 7.83999H65.8V7.63999H64.1299V7.83999ZM64.2299 13V7.73999H64.0299V13H64.2299ZM72.9692 11.6491C72.1069 12.5078 70.7127 12.5078 69.8503 11.6491L69.7092 11.7908C70.6496 12.7273 72.17 12.7273 73.1104 11.7908L72.9692 11.6491ZM72.9657 8.34716C73.8164 9.28487 73.8164 10.7151 72.9657 11.6528L73.1139 11.7872C74.0337 10.7732 74.0337 9.22673 73.1139 8.21278L72.9657 8.34716ZM69.8503 8.35083C70.7127 7.49216 72.1069 7.49216 72.9692 8.35083L73.1104 8.20911C72.17 7.27273 70.6496 7.27273 69.7092 8.20911L69.8503 8.35083ZM69.8539 11.6528C69.0034 10.7151 69.0034 9.28486 69.8539 8.34715L69.7057 8.21279C68.7861 9.22673 68.7861 10.7732 69.7057 11.7872L69.8539 11.6528ZM75.5798 7.1H76.5198V6.9H75.5798V7.1ZM75.6798 13V7H75.4798V13H75.6798ZM76.3599 12.9H75.5798V13.1H76.3599V12.9ZM76.2599 8.10999V13H76.4599V8.10999H76.2599ZM79.4948 12.9471L76.4447 8.05706L76.275 8.16291L79.3251 13.0529L79.4948 12.9471ZM80.2097 12.9H79.4099V13.1H80.2097V12.9ZM80.1097 7V13H80.3097V7H80.1097ZM79.4399 7.1H80.2097V6.9H79.4399V7.1ZM79.5399 11.67V7H79.3399V11.67H79.5399ZM76.435 7.05302L79.3552 11.723L79.5247 11.617L76.6046 6.94698L76.435 7.05302Z" fill="white"/>
<path d="M10.4399 7.53997C10.114 7.93108 9.94945 8.43177 9.9799 8.93997V31.06C9.94945 31.5682 10.114 32.0689 10.4399 32.46L10.5099 32.53L22.8999 20.15V19.86L10.5099 7.46997L10.4399 7.53997Z" fill="url(#paint0_linear)"/>
<path d="M26.9999 24.28L22.8999 20.15V19.86L26.9999 15.72L27.0899 15.77L31.9999 18.56C33.3999 19.35 33.3999 20.65 31.9999 21.45L27.1099 24.23L26.9999 24.28Z" fill="url(#paint1_linear)"/>
<path d="M27.1199 24.22L22.8999 20L10.4399 32.46C11.0287 32.9775 11.9024 33.0027 12.5199 32.52L27.1299 24.22" fill="url(#paint2_linear)"/>
<path d="M27.1199 15.78L12.5099 7.47999C11.8924 6.99726 11.0186 7.02247 10.4299 7.53999L22.8999 20L27.1199 15.78Z" fill="url(#paint3_linear)"/>
<path opacity="0.2" d="M26.9999 24.13L12.5099 32.38C11.917 32.8233 11.1029 32.8233 10.5099 32.38L10.4399 32.45L10.5099 32.52C11.1018 32.9667 11.9181 32.9667 12.5099 32.52L27.1199 24.22L26.9999 24.13Z" fill="black"/>
<path opacity="0.12" fill-rule="evenodd" clip-rule="evenodd" d="M27 24.13L32 21.3C32.5166 21.045 32.886 20.5648 33 20C32.9485 20.6244 32.5671 21.1736 32 21.44L27.0901 24.22L27 24.13ZM9.97778 31.1149C9.99438 31.5548 10.1558 31.9791 10.4399 32.32L10.51 32.4L10.4399 32.47C10.1235 32.0904 9.95923 31.6077 9.97778 31.1149ZM9.97778 31.1149C9.97827 31.1 9.979 31.085 9.97998 31.07V30.92C9.97607 30.9852 9.97534 31.0502 9.97778 31.1149Z" fill="black"/>
<path opacity="0.25" d="M12.51 7.62L32 18.7C32.5167 18.955 32.886 19.4352 33 20C32.9484 19.3756 32.567 18.8264 32 18.56L12.51 7.48C11.11 6.69 9.96997 7.35 9.96997 8.95V9.1C9.99997 7.49 11.12 6.83 12.51 7.62Z" fill="white"/>
<defs>
<linearGradient id="paint0_linear" x1="17.4731" y1="-7.559" x2="-2.36629" y2="-2.28266" gradientUnits="userSpaceOnUse">
<stop stop-color="#00A0FF"/>
<stop offset="0.01" stop-color="#00A1FF"/>
<stop offset="0.26" stop-color="#00BEFF"/>
<stop offset="0.51" stop-color="#00D2FF"/>
<stop offset="0.76" stop-color="#00DFFF"/>
<stop offset="1" stop-color="#00E3FF"/>
</linearGradient>
<linearGradient id="paint1_linear" x1="33.8299" y1="9.79966" x2="9.6399" y2="9.79966" gradientUnits="userSpaceOnUse">
<stop stop-color="#FFE000"/>
<stop offset="0.41" stop-color="#FFBD00"/>
<stop offset="0.78" stop-color="#FFA500"/>
<stop offset="1" stop-color="#FF9C00"/>
</linearGradient>
<linearGradient id="paint2_linear" x1="10.0738" y1="13.5275" x2="-5.86261" y2="40.3341" gradientUnits="userSpaceOnUse">
<stop stop-color="#FF3A44"/>
<stop offset="1" stop-color="#C31162"/>
</linearGradient>
<linearGradient id="paint3_linear" x1="0.70995" y1="4.09599" x2="7.82324" y2="16.0665" gradientUnits="userSpaceOnUse">
<stop stop-color="#32A071"/>
<stop offset="0.07" stop-color="#2DA771"/>
<stop offset="0.48" stop-color="#15CF74"/>
<stop offset="0.8" stop-color="#06E775"/>
<stop offset="1" stop-color="#00F076"/>
</linearGradient>
</defs>
</svg>
