<svg width="27" height="25" viewBox="0 0 27 25" fill="none" xmlns="http://www.w3.org/2000/svg">
<path fill-rule="evenodd" clip-rule="evenodd" d="M13.4795 12.6082L20.1825 16.7991L17.1307 23.9678H9.82825L6.66748 16.7991L13.4795 12.6082Z" stroke="white" stroke-width="0.981818"/>
<path d="M13.6025 6.84528L5.10107 3.53663L8.15285 1H18.8363L22.1038 3.53663" stroke="white" stroke-width="0.981818"/>
<path d="M5.03271 3.5647L1 10.8437L2.52589 17.461L4.81472 21.2108L8.19348 23.968H18.8747L21.9265 21.4314L24.3243 17.461L25.9592 10.8437L22.0355 3.5647L13.4796 6.87335V12.6083" stroke="white" stroke-width="0.981818"/>
<path d="M20.1826 16.7993L25.9592 10.8438" stroke="white" stroke-width="0.981818"/>
<path d="M6.77637 16.7993L0.999784 10.8438" stroke="white" stroke-width="0.572727"/>
<path d="M8.08437 1.13818L7.6484 10.2921L2.63477 17.3506" stroke="white" stroke-width="0.5" stroke-linecap="square" stroke-dasharray="0.19"/>
<path d="M18.8746 1.13818L19.3106 10.2921L24.3242 17.3506" stroke="white" stroke-width="0.5" stroke-linecap="square" stroke-dasharray="0.19"/>
<path d="M4.81445 21.2106L13.4248 18.1226L22.0352 21.4312" stroke="white" stroke-width="0.5" stroke-linecap="square" stroke-dasharray="0.19"/>
<path d="M7.75732 10.4023L13.4249 13.8213L19.2015 10.4023" stroke="white" stroke-width="0.5" stroke-linecap="square" stroke-dasharray="0.19"/>
<path d="M13.425 13.9316V18.1839" stroke="white" stroke-width="0.5" stroke-linecap="square" stroke-dasharray="0.19"/>
</svg>
