<svg width="15" height="9" viewBox="0 0 15 9" fill="none" xmlns="http://www.w3.org/2000/svg">
<path d="M7.5 6C8.32843 6 9 5.32843 9 4.5C9 3.67157 8.32843 3 7.5 3C6.67157 3 6 3.67157 6 4.5C6 5.32843 6.67157 6 7.5 6Z" fill="white"/>
<path fill-rule="evenodd" clip-rule="evenodd" d="M7.49976 0C10.7039 0 14.7058 4.07227 14.7058 4.07227C15.0974 4.43896 15.0974 4.55762 14.7058 4.92773C14.7058 4.92773 10.7039 9 7.49976 9C4.29565 9 0.293701 4.92773 0.293701 4.92773C-0.0979004 4.55762 -0.0979004 4.43896 0.293701 4.07227C0.293701 4.07227 4.29565 0 7.49976 0ZM4.99976 4.5C4.99976 5.88086 6.1189 7 7.49976 7C8.88062 7 9.99976 5.88086 9.99976 4.5C9.99976 3.11914 8.88062 2 7.49976 2C6.1189 2 4.99976 3.11963 4.99976 4.5Z" fill="white"/>
</svg>
