<?xml version="1.0" standalone="no"?>
<!DOCTYPE svg PUBLIC "-//W3C//DTD SVG 20010904//EN"
 "http://www.w3.org/TR/2001/REC-SVG-20010904/DTD/svg10.dtd">
<svg version="1.0" xmlns="http://www.w3.org/2000/svg"
 width="944.000000pt" height="944.000000pt" viewBox="0 0 944.000000 944.000000"
 preserveAspectRatio="xMidYMid meet">
<metadata>
Created by potrace 1.11, written by Peter Selinger 2001-2013
</metadata>
<g transform="translate(0.000000,944.000000) scale(0.100000,-0.100000)"
fill="#000000" stroke="none">
<path d="M2725 8865 c-18 -16 -66 -58 -107 -91 -40 -34 -84 -72 -98 -84 -14
-12 -47 -40 -74 -63 -27 -23 -86 -73 -130 -111 -89 -76 -91 -77 -391 -331
-115 -97 -238 -202 -271 -231 -34 -30 -74 -64 -90 -76 -16 -13 -38 -31 -49
-41 -11 -11 -35 -31 -53 -45 l-34 -26 34 -17 c18 -9 36 -15 40 -13 26 16 -2
-75 -32 -106 -4 -4 -18 -29 -64 -115 -6 -11 -13 -22 -16 -25 -6 -6 -25 -39
-57 -100 -50 -95 -74 -134 -84 -141 -6 -3 -10 -9 -9 -13 2 -7 -8 -26 -76 -145
-11 -20 -38 -67 -59 -106 -21 -38 -43 -77 -49 -85 -7 -8 -18 -28 -26 -45 -8
-16 -21 -38 -29 -47 -8 -10 -10 -18 -5 -18 5 0 4 -4 -2 -8 -6 -4 -24 -32 -41
-62 -42 -78 -296 -528 -322 -570 -11 -19 -26 -47 -32 -62 -6 -16 -15 -28 -20
-28 -5 0 -9 -5 -9 -12 0 -6 -17 -41 -39 -77 -21 -36 -68 -118 -104 -181 -35
-63 -75 -133 -88 -155 -25 -45 -57 -103 -85 -155 -11 -19 -21 -37 -24 -40 -3
-3 -12 -18 -20 -35 -8 -16 -17 -32 -20 -35 -3 -3 -16 -26 -29 -52 l-24 -48 27
-112 c14 -62 28 -123 31 -135 10 -44 13 -58 23 -98 6 -22 13 -51 16 -65 2 -14
14 -63 26 -110 24 -92 29 -114 35 -145 9 -48 17 -85 36 -155 11 -41 21 -84 23
-95 5 -27 40 -176 70 -302 14 -56 27 -112 30 -125 4 -23 51 -221 63 -268 3
-14 7 -31 9 -39 1 -7 8 -34 14 -60 6 -25 12 -55 15 -66 7 -33 55 -238 65 -275
18 -71 31 -125 34 -140 28 -159 43 -188 244 -505 28 -44 66 -106 84 -137 18
-32 36 -58 40 -58 5 0 8 -5 8 -10 0 -6 15 -34 34 -63 18 -28 54 -84 80 -124
25 -40 46 -75 46 -78 0 -3 16 -28 35 -55 19 -27 35 -52 35 -54 0 -2 32 -54 70
-115 39 -60 70 -115 70 -120 0 -6 3 -11 8 -11 4 0 33 -44 66 -98 57 -95 63
-100 228 -232 94 -74 182 -145 196 -157 15 -12 135 -107 267 -213 132 -105
247 -196 255 -203 8 -7 53 -43 100 -80 47 -38 101 -81 120 -96 19 -16 62 -50
96 -77 l61 -49 1929 1 c1061 1 1936 2 1946 3 13 1 117 77 138 101 3 3 25 21
50 40 25 19 56 45 70 56 14 12 104 86 200 164 96 78 195 159 220 179 25 21 86
71 135 110 50 39 99 79 110 89 11 9 61 50 110 90 127 102 127 102 189 204 79
128 73 119 148 240 38 60 68 113 68 118 0 6 5 10 10 10 6 0 10 7 10 15 0 8 5
15 10 15 6 0 10 5 10 11 0 7 20 42 45 80 25 38 45 71 45 74 0 3 15 29 34 58
18 28 49 77 68 107 20 30 36 59 36 64 0 5 4 12 9 15 9 7 8 5 90 141 32 52 61
100 66 105 19 24 167 271 168 280 1 14 5 32 23 100 9 33 19 73 22 89 3 16 7
33 10 38 3 4 7 17 10 28 10 45 13 59 39 160 15 58 28 112 30 120 2 8 15 62 30
120 31 121 34 136 41 170 2 14 7 32 11 40 3 8 8 23 10 33 1 10 19 82 39 160
20 78 38 151 40 161 2 10 9 35 16 55 6 20 13 43 14 51 1 8 4 24 7 35 22 84 70
280 72 294 2 9 4 18 6 21 1 3 3 10 4 15 1 6 5 17 8 25 3 8 12 44 20 80 9 36
32 130 52 210 20 80 38 152 40 160 2 8 8 30 14 48 5 17 8 32 6 32 -2 0 2 18
10 40 8 22 11 40 8 40 -4 0 -2 5 5 12 11 11 -5 44 -91 198 -34 61 -206 372
-265 480 -72 132 -246 448 -262 475 -9 17 -33 59 -52 95 -35 64 -63 115 -114
208 -44 79 -86 154 -118 214 -41 74 -195 355 -216 393 -9 17 -32 57 -50 90
-18 33 -44 80 -58 105 -13 25 -37 68 -52 95 -29 53 -63 114 -106 193 -15 26
-41 74 -59 107 -26 48 -37 60 -57 60 -20 0 -86 40 -108 65 -3 3 -36 30 -75 60
-38 30 -77 60 -85 67 -8 7 -66 53 -128 103 -62 49 -117 90 -121 90 -5 0 -11 4
-13 9 -2 7 -86 75 -205 168 -15 12 -38 31 -50 42 -12 12 -26 21 -32 21 -5 0
-11 4 -13 8 -3 7 -127 109 -199 162 -18 14 -40 32 -49 40 -9 8 -34 28 -55 44
-22 17 -43 34 -47 40 -4 7 -652 10 -1933 11 l-1927 0 -33 -30z m3666 -324 c3
-16 8 -96 13 -191 3 -58 7 -159 11 -225 3 -66 7 -158 10 -205 6 -106 16 -337
18 -409 l2 -54 -100 -39 c-55 -21 -118 -45 -140 -53 -22 -8 -159 -59 -304
-115 -145 -55 -270 -100 -277 -100 -8 0 -14 -4 -14 -10 0 -5 -6 -10 -14 -10
-11 0 -510 -186 -621 -231 -16 -7 -39 -14 -49 -16 -11 -2 -24 -7 -30 -12 -6
-4 -36 -16 -66 -27 -30 -10 -59 -21 -65 -25 -5 -4 -26 0 -45 8 -19 9 -40 17
-46 18 -8 2 -295 115 -379 150 -11 5 -22 9 -25 10 -3 1 -14 5 -25 10 -154 64
-988 393 -995 392 -3 0 -16 6 -30 13 -14 8 -27 15 -30 15 -3 1 -18 7 -35 14
-16 6 -55 22 -85 33 -73 29 -78 33 -74 66 2 15 6 83 9 152 3 69 7 159 9 200 3
41 7 136 11 210 15 326 21 434 24 436 8 4 3341 -1 3342 -5z m-3706 -278 c-3
-65 -8 -163 -10 -218 -2 -55 -7 -154 -11 -220 -3 -66 -6 -132 -5 -147 1 -25
-17 -33 -35 -15 -4 4 -13 7 -21 7 -12 0 -85 29 -125 51 -10 5 -23 9 -28 9 -6
0 -30 9 -52 20 -23 11 -45 20 -50 20 -5 0 -27 9 -51 19 -23 10 -75 32 -115 47
-40 15 -75 31 -78 35 -4 6 103 102 250 224 27 22 60 50 75 63 14 13 43 37 65
55 43 36 103 88 156 135 19 17 36 32 38 32 2 0 0 -53 -3 -117z m4126 22 c14
-11 40 -31 59 -45 18 -14 49 -40 69 -57 20 -18 39 -33 42 -33 4 0 21 -13 39
-30 18 -16 35 -30 39 -30 3 0 20 -12 36 -28 17 -15 57 -47 90 -72 33 -25 65
-50 70 -56 6 -6 38 -32 73 -59 34 -26 62 -51 62 -55 0 -4 -21 -15 -47 -25 -27
-9 -75 -28 -108 -41 -33 -14 -67 -26 -75 -28 -8 -1 -26 -8 -40 -16 -14 -7 -26
-13 -28 -12 -1 1 -19 -5 -40 -14 -20 -8 -49 -18 -64 -21 -16 -3 -28 -10 -28
-16 0 -6 -3 -8 -6 -4 -3 3 -18 1 -33 -5 -56 -22 -126 -48 -132 -48 -3 0 -5 27
-5 61 1 33 -2 66 -5 71 -4 6 -3 24 1 39 5 16 5 29 1 29 -4 0 -8 24 -8 53 0 28
-3 111 -7 182 -16 332 -16 307 2 293 10 -7 29 -22 43 -33z m-4809 -750 c64
-25 121 -45 127 -45 6 0 11 -4 11 -10 0 -5 6 -10 13 -10 8 0 58 -18 113 -41
54 -22 104 -42 109 -43 6 -1 27 -10 49 -19 21 -9 40 -17 42 -17 1 0 15 -5 31
-12 15 -6 30 -12 33 -13 3 -1 14 -5 25 -10 11 -4 35 -14 52 -21 l32 -13 -4
-88 c-11 -206 -16 -306 -20 -438 -3 -77 -8 -171 -10 -210 -3 -38 -7 -128 -10
-200 -3 -71 -8 -159 -10 -195 -7 -130 -18 -386 -19 -447 -1 -35 -3 -63 -6 -63
-3 0 -5 -26 -4 -57 1 -39 -4 -65 -15 -79 -9 -12 -22 -30 -29 -40 -7 -11 -44
-63 -82 -117 -39 -53 -70 -102 -70 -107 0 -6 -3 -10 -7 -10 -5 -1 -33 -37 -63
-81 -30 -44 -71 -102 -90 -129 -19 -26 -42 -58 -50 -70 -8 -12 -31 -44 -50
-71 -19 -26 -64 -90 -100 -141 -35 -51 -68 -97 -73 -103 -17 -22 -220 -312
-235 -337 -10 -16 -22 -28 -28 -28 -5 0 -82 72 -170 161 -87 89 -164 166 -171
173 -63 61 -252 249 -398 396 -99 100 -184 185 -190 188 -5 4 -43 42 -84 84
-73 76 -73 76 -59 104 20 39 147 262 169 299 11 17 22 37 26 45 4 8 19 35 33
60 15 25 44 77 65 115 21 39 43 79 49 90 6 11 13 22 16 25 3 3 20 34 39 70 19
36 37 67 40 70 3 3 13 19 21 35 8 17 18 32 21 35 3 3 15 25 28 50 12 25 27 54
34 65 7 11 27 43 44 72 18 29 30 53 27 53 -3 0 3 12 13 28 10 15 25 39 33 55
7 15 17 27 22 27 4 0 8 6 8 13 0 6 74 142 165 301 91 160 165 293 165 297 0 4
6 14 13 21 7 7 18 24 24 38 7 14 28 52 47 85 20 33 44 76 53 95 10 19 21 37
26 38 4 2 7 8 7 12 0 5 16 36 35 69 30 51 39 59 53 51 9 -6 70 -30 134 -55z
m5681 -37 c14 -24 41 -74 61 -111 20 -37 45 -82 55 -100 10 -18 31 -57 48 -87
59 -107 136 -246 163 -295 15 -27 61 -111 102 -185 41 -74 94 -171 118 -215
23 -44 46 -84 50 -90 5 -5 22 -37 40 -70 17 -33 44 -82 59 -110 15 -27 45 -81
66 -120 21 -38 51 -92 67 -120 15 -27 36 -66 46 -85 9 -19 19 -37 23 -40 3 -3
14 -23 26 -45 27 -52 116 -215 175 -320 15 -27 40 -74 55 -103 l27 -52 -543
-544 c-455 -455 -546 -542 -558 -531 -7 8 -13 17 -13 21 0 4 -20 33 -43 63
-24 31 -50 67 -57 81 -7 14 -16 27 -19 30 -13 10 -161 221 -161 230 0 4 -3 10
-8 12 -4 2 -43 55 -88 118 -115 163 -138 196 -260 370 -60 85 -112 157 -116
158 -5 2 -8 9 -8 15 -1 7 -14 28 -30 47 -17 19 -30 40 -30 47 0 7 -4 13 -10
13 -17 0 -34 44 -36 95 -1 28 -3 50 -4 50 -1 0 -3 36 -5 80 -4 111 -15 354
-21 450 -2 44 -7 132 -9 195 -2 63 -7 162 -10 220 -3 58 -7 146 -9 195 -13
283 -18 393 -21 421 -2 27 2 34 34 49 20 9 43 19 51 20 12 3 245 90 345 130
11 4 25 9 30 11 10 3 231 88 325 124 64 25 66 25 93 -22z m-4636 -380 c15 -6
30 -12 33 -12 3 -1 26 -9 50 -20 62 -25 75 -31 150 -60 36 -13 79 -30 95 -37
17 -7 35 -13 40 -14 6 -2 33 -13 60 -25 67 -29 47 -22 410 -165 176 -69 329
-130 340 -134 11 -5 63 -26 115 -46 160 -62 192 -76 201 -89 4 -4 7 -381 7
-836 l0 -828 -27 -13 c-14 -8 -51 -30 -81 -50 -30 -19 -71 -44 -90 -55 -19
-10 -43 -27 -54 -36 -20 -19 -34 -13 -216 91 -129 73 -185 105 -207 115 -13 6
-23 14 -23 19 0 4 -4 7 -9 7 -5 0 -68 34 -141 75 -73 41 -134 75 -135 75 -1 0
-68 38 -149 85 -81 47 -152 85 -157 85 -5 0 -9 5 -9 12 0 6 -3 9 -6 6 -3 -4
-22 5 -41 18 -20 13 -42 24 -49 24 -8 0 -14 4 -14 9 0 5 -8 11 -17 14 -10 4
-40 20 -68 37 -27 16 -63 37 -80 46 -85 44 -77 24 -70 164 3 69 8 166 10 215
2 50 7 144 10 210 9 177 13 263 20 430 4 83 8 182 10 220 2 39 7 133 10 210 4
77 8 163 10 190 2 28 4 60 4 73 1 19 4 21 20 12 11 -5 32 -15 48 -22z m3419
-60 c1 -33 13 -298 19 -418 2 -36 6 -123 9 -193 3 -71 9 -133 12 -138 3 -5 0
-9 -6 -9 -6 0 -8 -4 -5 -10 7 -11 11 -69 20 -280 4 -80 8 -179 10 -220 2 -41
6 -132 10 -201 5 -118 5 -126 -15 -144 -11 -10 -20 -15 -20 -11 0 4 -12 -1
-27 -12 -16 -11 -59 -36 -98 -57 -124 -66 -180 -97 -192 -108 -7 -5 -13 -6
-13 -1 0 5 -5 1 -11 -9 -6 -9 -14 -15 -18 -12 -5 2 -14 -2 -21 -10 -7 -8 -16
-15 -20 -15 -5 0 -39 -17 -77 -39 -88 -49 -152 -85 -233 -129 -36 -19 -91 -50
-123 -68 -32 -19 -60 -34 -62 -34 -2 0 -45 -24 -97 -53 -89 -51 -131 -75 -277
-154 -35 -19 -78 -43 -95 -54 -17 -10 -36 -19 -43 -19 -6 0 -54 27 -106 60
l-94 61 0 859 0 859 21 7 c11 4 22 6 24 5 1 -1 15 5 30 13 15 8 83 36 152 61
69 26 152 57 185 69 67 26 99 37 102 37 2 0 18 6 103 42 14 6 27 11 30 12 13
4 49 18 95 35 28 11 172 65 320 120 149 56 277 104 285 107 8 4 17 7 20 8 3 1
16 6 30 12 49 21 85 35 102 38 10 2 26 8 35 14 30 17 38 13 39 -21z m-3563
-2000 c26 -15 52 -28 57 -28 6 0 10 -4 10 -9 0 -5 8 -11 18 -14 18 -6 71 -35
242 -134 58 -33 121 -69 140 -80 65 -36 175 -98 192 -108 9 -5 41 -23 70 -39
29 -16 65 -37 81 -48 15 -11 27 -17 27 -14 0 4 100 -53 126 -71 5 -4 18 -13
28 -18 10 -6 19 -14 20 -18 0 -5 -190 -124 -424 -267 -234 -142 -430 -262
-435 -267 -6 -4 -23 -15 -38 -23 -54 -30 -242 -144 -247 -150 -3 -4 -12 -10
-20 -14 -8 -4 -24 -12 -35 -19 -77 -46 -106 -64 -150 -92 -27 -17 -66 -40 -85
-51 -19 -10 -37 -22 -40 -25 -3 -3 -16 -12 -29 -18 -22 -12 -28 -9 -79 41 -31
29 -59 56 -62 60 -11 14 -158 163 -177 179 -10 9 -27 27 -39 40 -12 13 -30 31
-40 40 -10 9 -38 36 -61 62 -36 38 -41 48 -30 59 8 7 35 45 62 83 72 103 133
188 145 202 5 7 10 15 10 18 0 3 5 11 10 18 10 11 94 129 122 171 7 10 18 24
23 30 6 7 15 19 20 28 16 26 108 157 141 201 17 23 84 117 148 209 l117 168
67 -37 c37 -20 89 -49 115 -65z m3834 75 c10 -16 23 -35 30 -43 7 -8 59 -82
117 -165 58 -82 109 -155 113 -160 5 -6 34 -46 63 -90 30 -44 58 -81 62 -83 5
-2 8 -10 8 -18 0 -8 3 -14 8 -14 4 0 18 -18 32 -40 14 -22 28 -40 32 -40 5 0
8 -5 8 -10 0 -11 34 -62 57 -87 6 -7 21 -29 34 -50 13 -21 26 -40 29 -43 3 -3
17 -21 30 -40 13 -19 30 -41 37 -48 7 -7 13 -18 13 -23 0 -6 6 -16 13 -24 23
-25 47 -55 47 -61 0 -3 11 -20 25 -38 14 -18 25 -37 25 -42 0 -5 -119 -128
-263 -272 l-264 -264 -144 88 c-79 48 -145 92 -147 96 -2 4 -8 8 -13 8 -5 0
-28 12 -52 28 -23 15 -47 29 -52 32 -13 6 -256 157 -332 207 -28 18 -56 33
-62 33 -6 0 -11 4 -11 8 0 5 -11 14 -23 19 -13 6 -57 33 -98 59 -41 27 -76 48
-79 49 -3 0 -30 16 -60 36 -71 46 -111 71 -132 84 -9 5 -43 26 -74 45 -32 19
-70 42 -84 50 -14 9 -51 32 -83 53 -31 20 -62 37 -67 37 -6 0 -10 4 -10 8 0 5
-10 13 -21 18 -19 9 -7 18 96 74 64 36 136 76 158 89 23 13 69 38 102 56 33
18 114 62 179 99 66 36 121 66 123 66 2 0 20 11 41 23 20 13 73 43 117 67 44
24 96 52 115 63 19 11 90 51 157 88 68 38 127 69 132 69 5 0 14 7 21 15 18 21
27 19 47 -12z m-5358 -1279 c-46 -65 -88 -124 -94 -131 -5 -7 -29 -41 -53 -75
-50 -73 -187 -268 -199 -283 -4 -5 -21 -29 -37 -52 -16 -24 -30 -43 -31 -43
-2 0 -11 35 -21 78 -10 42 -18 79 -19 82 -1 3 -5 21 -9 40 -8 40 -73 312 -83
350 -3 14 -7 30 -7 35 -1 6 -5 24 -9 40 -4 17 -9 39 -12 50 -2 11 -16 70 -31
130 -14 61 -27 117 -29 125 -5 24 -32 137 -59 250 -62 258 -86 362 -86 373 0
7 194 -182 431 -419 l431 -431 -83 -119z m7447 939 c-3 -16 -26 -109 -51 -208
-26 -99 -48 -188 -51 -197 -2 -10 -6 -26 -8 -35 -2 -10 -9 -37 -15 -60 -6 -24
-16 -62 -22 -85 -6 -24 -12 -51 -15 -62 -2 -10 -10 -42 -18 -70 -8 -28 -18
-64 -21 -81 -10 -48 -10 -49 -19 -63 -4 -7 -5 -16 -2 -19 3 -3 1 -13 -3 -22
-5 -9 -12 -29 -15 -46 -3 -16 -19 -84 -36 -150 -17 -66 -33 -127 -35 -135 -2
-8 -11 -44 -20 -80 -9 -36 -20 -81 -24 -100 -16 -77 -23 -77 -77 2 -47 68 -92
132 -233 332 -31 43 -60 86 -66 95 -5 9 -12 18 -15 21 -3 3 -13 16 -22 30 -10
14 -31 45 -49 69 l-31 44 424 424 c232 232 424 423 426 423 2 0 1 -12 -2 -27z
m-4092 -323 c4 -4 -2 -13 -14 -20 -18 -10 -28 -7 -62 15 -37 24 -38 28 -22 39
15 11 23 10 53 -6 20 -11 40 -24 45 -28z m-320 -266 l136 -76 0 -589 c0 -324
-1 -589 -3 -589 -4 0 -429 -147 -462 -160 -16 -6 -32 -12 -35 -12 -3 0 -16 -5
-30 -10 -14 -5 -32 -11 -40 -13 -8 -2 -35 -11 -60 -20 -25 -9 -52 -18 -60 -20
-17 -5 -286 -99 -312 -110 -9 -3 -22 -8 -30 -9 -7 -2 -20 -6 -28 -9 -38 -14
-167 -59 -180 -62 -8 -2 -120 -40 -249 -84 -129 -45 -235 -80 -237 -79 -5 5
-96 206 -99 218 0 3 -8 21 -17 40 -9 19 -38 82 -63 140 -26 58 -53 119 -60
135 -8 17 -22 50 -33 75 -11 25 -32 72 -47 105 -49 110 -49 103 -7 125 71 39
107 62 110 71 2 5 8 9 14 9 6 0 39 18 74 40 35 22 68 40 73 40 5 0 11 3 13 8
4 9 107 72 118 72 5 0 10 3 12 8 4 9 306 192 317 192 5 0 11 4 13 8 2 5 66 46
143 92 77 46 142 87 145 90 3 3 19 12 35 21 17 9 68 40 115 69 47 29 99 61
116 70 29 17 180 109 214 130 8 6 49 31 90 56 41 25 95 58 120 74 25 16 48 29
51 29 3 1 68 -33 143 -75z m787 -24 c61 -38 113 -70 116 -70 2 0 24 -13 48
-30 24 -16 48 -30 54 -30 6 0 11 -4 11 -10 0 -5 7 -10 15 -10 8 0 15 -4 15
-10 0 -5 4 -10 9 -10 5 0 50 -26 100 -57 50 -32 99 -62 109 -68 9 -5 104 -64
209 -130 106 -66 205 -127 220 -135 15 -8 32 -18 38 -23 25 -18 184 -118 320
-200 11 -7 46 -29 78 -49 32 -21 61 -38 65 -38 4 0 25 -14 46 -30 22 -17 46
-30 53 -30 7 0 13 -4 13 -10 0 -5 7 -10 15 -10 8 0 15 -4 15 -10 0 -5 6 -10
13 -10 6 0 22 -8 35 -18 l23 -18 -21 -49 c-11 -28 -28 -63 -37 -80 -9 -16 -17
-32 -16 -35 1 -7 -19 -56 -92 -225 -10 -22 -17 -41 -16 -43 1 -1 -5 -15 -13
-30 -17 -30 -56 -118 -56 -126 0 -2 -14 -35 -31 -73 -16 -37 -34 -77 -39 -88
-32 -75 -44 -100 -45 -103 -3 -3 -88 24 -120 38 -11 4 -54 20 -95 35 -41 15
-91 33 -110 41 -19 7 -111 41 -205 75 -93 33 -179 65 -190 70 -22 9 -264 99
-280 103 -5 2 -21 8 -35 13 -14 6 -63 24 -110 41 -199 71 -396 145 -405 152
-14 11 -13 1262 0 1267 6 2 46 24 90 48 44 24 84 44 88 45 4 0 58 -31 118 -70z
m-3121 -833 c0 -4 -4 -5 -10 -2 -5 3 -10 2 -10 -4 0 -5 -9 -12 -19 -16 -21 -6
-20 -16 5 -70 28 -60 295 -660 298 -670 3 -10 24 -57 70 -157 15 -32 26 -60
26 -63 0 -3 11 -27 25 -55 14 -27 25 -53 25 -58 0 -5 -39 -21 -87 -37 -49 -16
-92 -32 -98 -35 -5 -4 -23 -11 -40 -15 -34 -9 -34 -9 -57 -18 -45 -17 -54 -20
-71 -24 -10 -1 -31 -10 -48 -18 -16 -9 -29 -13 -29 -10 0 4 -6 3 -12 -2 -7 -4
-17 -8 -23 -9 -5 -1 -82 -27 -170 -58 -88 -31 -163 -56 -166 -56 -3 0 -19 21
-36 48 -49 77 -397 635 -408 655 -5 9 -36 58 -67 108 -32 50 -58 94 -58 98 0
6 117 177 176 258 15 20 91 129 114 163 69 101 175 246 181 248 5 2 9 8 9 13
0 9 73 116 101 148 9 10 47 -22 195 -170 101 -101 184 -187 184 -192z m5690
321 c19 -28 39 -56 45 -63 5 -6 15 -18 20 -27 16 -27 118 -173 124 -178 3 -3
11 -12 16 -21 14 -23 36 -54 152 -219 57 -80 108 -153 115 -163 7 -11 23 -33
36 -50 12 -17 22 -35 22 -39 0 -5 -15 -32 -33 -61 -18 -29 -36 -59 -40 -67 -4
-8 -25 -42 -47 -75 -22 -33 -44 -70 -50 -83 -5 -12 -19 -32 -30 -44 -11 -12
-20 -25 -20 -30 0 -4 -17 -34 -37 -65 -48 -75 -59 -93 -75 -123 -7 -14 -15
-27 -18 -30 -4 -3 -45 -68 -92 -145 -208 -341 -193 -320 -229 -301 -14 7 -36
16 -50 19 -13 3 -91 31 -174 62 -82 31 -206 77 -275 101 -69 25 -134 49 -145
54 -11 4 -47 18 -80 30 -33 12 -68 26 -77 31 -10 5 -25 9 -33 9 -8 0 -15 1
-15 3 0 11 101 245 120 279 6 10 10 22 10 28 0 5 12 35 26 67 14 32 32 72 39
88 8 17 25 56 39 88 14 32 26 59 26 62 0 2 14 33 30 68 17 36 30 68 30 72 0 3
13 34 28 68 16 34 41 92 56 128 26 61 47 85 272 310 134 134 244 246 244 250
0 7 17 17 30 18 3 0 21 -23 40 -51z m-3075 -1073 c52 -18 181 -66 270 -100 39
-14 81 -30 95 -35 14 -5 70 -25 125 -45 55 -21 136 -51 180 -67 44 -16 85 -31
90 -32 6 -2 21 -7 35 -13 14 -5 77 -29 140 -52 63 -23 122 -45 130 -48 8 -3
24 -8 34 -10 11 -2 24 -7 30 -12 6 -4 40 -18 76 -30 36 -12 74 -26 85 -31 11
-5 87 -33 170 -63 82 -30 151 -59 152 -64 2 -6 -53 -142 -123 -304 -130 -303
-146 -340 -149 -349 -3 -8 -34 -78 -61 -138 -13 -29 -24 -55 -24 -57 0 -2 -12
-30 -26 -62 -14 -32 -29 -67 -34 -78 -4 -11 -17 -40 -28 -65 l-20 -45 -1180 0
c-773 0 -1184 4 -1190 10 -5 6 -21 39 -36 75 -16 36 -36 83 -46 105 -11 22
-36 81 -58 130 -22 50 -50 113 -62 140 -48 106 -70 154 -123 275 -30 69 -66
150 -80 180 -13 30 -39 89 -57 130 -18 41 -36 80 -41 86 -10 12 -4 15 111 54
36 12 74 26 85 30 11 5 38 14 60 21 22 6 46 16 53 22 6 5 12 7 12 4 0 -3 37 8
83 24 45 17 89 32 97 34 14 4 407 138 438 150 7 2 16 5 20 6 4 1 34 12 67 24
33 13 62 23 65 23 3 1 12 3 20 6 18 7 475 165 510 176 37 12 61 11 105 -5z
m-2031 -730 c1 -7 8 -20 15 -29 7 -9 11 -16 8 -16 -5 0 20 -59 100 -230 19
-41 36 -79 37 -85 2 -5 15 -37 31 -70 15 -33 29 -62 30 -65 5 -15 27 -64 63
-142 22 -49 38 -88 35 -88 -3 0 2 -9 12 -20 10 -11 15 -20 12 -20 -3 0 14 -43
39 -95 24 -52 44 -98 44 -103 0 -14 -172 -10 -190 4 -8 7 -230 185 -494 395
l-478 383 38 14 c22 7 44 15 49 16 6 2 17 6 25 9 8 4 62 22 120 42 58 19 188
64 290 99 l185 63 14 -25 c7 -14 14 -31 15 -37z m4141 -46 c17 -6 39 -14 50
-19 49 -20 502 -186 533 -195 37 -11 39 -9 -88 -110 -41 -33 -80 -64 -86 -70
-6 -5 -25 -21 -43 -35 -18 -14 -47 -37 -64 -52 -18 -14 -77 -63 -132 -108 -55
-45 -109 -89 -120 -98 -11 -9 -54 -44 -95 -77 -41 -33 -80 -65 -86 -70 -6 -6
-34 -28 -63 -50 l-52 -40 -162 -1 c-158 -1 -188 5 -168 31 5 5 27 55 51 110
43 102 74 174 90 210 5 11 29 67 53 125 25 58 54 126 66 153 39 87 58 131 105
243 l47 112 67 -25 c37 -13 81 -29 97 -34z"/>
</g>
</svg>
